<svg width="33" height="33" viewBox="0 0 33 33" fill="none" xmlns="http://www.w3.org/2000/svg">
<path d="M8.96517 11.9703L8.96519 11.9703L9.32512 11.6232C9.32513 11.6232 9.32513 11.6232 9.32513 11.6232C9.42452 11.5274 9.58277 11.5303 9.67861 11.6297C9.67861 11.6297 9.67861 11.6297 9.67861 11.6297L16.3168 18.5144L16.6638 18.8743L17.0238 18.5273L23.9085 11.8891C24.0079 11.7932 24.1661 11.7961 24.2619 11.8955L24.609 12.2555C24.7049 12.3549 24.702 12.5131 24.6026 12.6089L16.818 20.1148C16.7186 20.2106 16.5604 20.2078 16.4646 20.1084L8.95873 12.3238C8.95873 12.3238 8.95873 12.3238 8.95873 12.3238C8.86289 12.2244 8.86578 12.0662 8.96517 11.9703Z" fill="black" stroke="black"/>
</svg>
