<svg width="32" height="33" viewBox="0 0 32 33" fill="none" xmlns="http://www.w3.org/2000/svg">
<path d="M23.8233 20.4658L23.8232 20.4658L23.4697 20.8194C23.4697 20.8194 23.4697 20.8194 23.4697 20.8194C23.3721 20.917 23.2138 20.917 23.1162 20.8194C23.1162 20.8194 23.1162 20.8194 23.1161 20.8193L16.3536 14.0568L16 13.7032L15.6465 14.0567L8.88388 20.8193C8.78625 20.917 8.62803 20.917 8.53039 20.8193L8.17679 20.4658C8.07915 20.3681 8.07915 20.2099 8.17679 20.1123L15.8233 12.4658C15.9209 12.3681 16.0791 12.3681 16.1768 12.4658L23.8233 20.1123C23.8233 20.1123 23.8233 20.1123 23.8233 20.1123C23.9209 20.2099 23.9209 20.3681 23.8233 20.4658Z" fill="black" stroke="black"/>
</svg>
